/* XPM */
static char *_fe895dd84414eaeddce369dd103a6f0DWiUsCQNlwVV4ZD0[] = {
/* columns rows colors chars-per-pixel */
"75 75 14 1 ",
"  c #575A5B",
". c #585A5B",
"X c #595B5D",
"o c #5A5D5E",
"O c #5C5E5F",
"+ c #5C5F60",
"@ c #5F6162",
"# c #606163",
"$ c #616365",
"% c #636667",
"& c #646667",
"* c #636668",
"= c #646769",
"- c #656869",
/* pixels */
"===========================================================================",
"===========================================================================",
"===========================================================================",
"===========================================================================",
"===========================================================================",
"===========================================================================",
"===========================================================================",
"===========================================================================",
"===========================================================================",
"==================--==%====================================================",
"==================-=$$$====================================================",
"===================@oX+%%%=================================================",
"==================%+oo+%=&=================================================",
"==================%%+o%====================================================",
"===================*=======================================================",
"===========================================================================",
"===========================================================================",
"===========================================================================",
"===========================================================================",
"===========================================================================",
"===========================================================================",
"===========================================================================",
"===========================================================================",
"===========================================================================",
"===========================================================================",
"=========================================================--&&%=============",
"=========================================================-@oXo+%===========",
"=========================================================&oXoXo%===========",
"==========================================================o.Xo+%===========",
"==========================================================%$$%=============",
"===========================================================================",
"===========================================================================",
"===========================================================================",
"===========================================================================",
"===========================================================================",
"===========================================================================",
"===========================================================================",
"===========================================================================",
"===========================================================================",
"===========================================================================",
"===========================================================================",
"===========================================================================",
"===========================================================================",
"===========================================================================",
"===========================================================================",
"===========================================================================",
"===========================================================================",
"===========================================================================",
"===========================================================================",
"===========================================================================",
"===========================================================================",
"===========================================================================",
"===========================================================================",
"===========================================================================",
"===========================================================================",
"===========================================================================",
"===========================================================================",
"===========================================================================",
"===========================================================================",
"===========================================================================",
"================================================%%#========================",
"===============================================%#OX========================",
"===============================================%+Xo========================",
"===============================================%+@$========================",
"===============================================%%%%========================",
"===============================================%%%%========================",
"===========================================================================",
"===========================================================================",
"================================================&%$$$$$$$$$%===============",
"===============================================%#+o    XXXXo@%=============",
"=======================================%%%====%$+XXXXXXXXXXXX+@%=-=*=======",
"=======================================%%%&==%$#XXXXXXXXXXXXXo+#&-=%=======",
"==========================--===%%%%%%%&%%=&%&$+X oXXXXXXXXXXXoo+$=%*=======",
"==========================&%==%$$$@OOO+$%=%%%@XXXo.XXXXXXXXXXooX@%%*=======",
"========================%$OXoooXXXXXXXXo+$%%&@XXXoXXXXXXXXXXXooXo%%*======="
};
