/* XPM */
static char *_1d57a776bb7473af850399ddb768922y9g0enki0drsqvFt[] = {
/* columns rows colors chars-per-pixel */
"75 75 230 2 ",
"   c None",
".  c #3C2E14",
"X  c #3A2D1C",
"o  c #362E1F",
"O  c #3D311D",
"+  c #3F3113",
"@  c #2D2E26",
"#  c #2D2E2C",
"$  c #272D2F",
"%  c #332E24",
"&  c #3A2D24",
"*  c #322E2C",
"=  c #392B2D",
"-  c #3A272E",
";  c #2D312C",
":  c #2D3126",
">  c #323125",
",  c #3C3223",
"<  c #32312C",
"1  c #3A342F",
"2  c #2E2E32",
"3  c #322D32",
"4  c #3B2B34",
"5  c #3C2B39",
"6  c #392837",
"7  c #273132",
"8  c #2D3132",
"9  c #2D3138",
"0  c #323134",
"q  c #34333A",
"w  c #3A343B",
"e  c #3A3A3B",
"r  c #383938",
"t  c #483219",
"y  c #412F11",
"u  c #472E28",
"i  c #443A23",
"p  c #4C3C25",
"a  c #483827",
"s  c #513B27",
"d  c #412939",
"f  c #412938",
"g  c #4C3E32",
"h  c #433D3C",
"j  c #443B39",
"k  c #533F33",
"l  c #4A412A",
"z  c #4D4327",
"x  c #54432C",
"c  c #5B442B",
"v  c #5B4A2C",
"b  c #584325",
"n  c #4A423A",
"m  c #584832",
"M  c #5B543B",
"N  c #644B2B",
"B  c #6B4A25",
"V  c #745529",
"C  c #664D39",
"Z  c #685237",
"A  c #775A37",
"S  c #6A5236",
"D  c #7D6333",
"F  c #3B3B42",
"G  c #3A3944",
"H  c #423E4A",
"J  c #4A3846",
"K  c #53394E",
"L  c #5A3648",
"P  c #5A3E52",
"I  c #553952",
"U  c #4F324A",
"Y  c #613F58",
"T  c #464549",
"R  c #544A47",
"E  c #5B5245",
"W  c #4C4653",
"Q  c #5C4556",
"!  c #5F5C58",
"~  c #635847",
"^  c #65455E",
"/  c #67475A",
"(  c #675E5A",
")  c #704F4F",
"_  c #66615C",
"`  c #7B684F",
"'  c #6E4C67",
"]  c #6B4764",
"[  c #724A65",
"{  c #734B6A",
"}  c #635C65",
"|  c #78556E",
" . c #795872",
".. c #626166",
"X. c #757477",
"o. c #746B71",
"O. c #A57C3C",
"+. c #AC7B3D",
"@. c #AC7A37",
"#. c #B37C37",
"$. c #866B46",
"%. c #8C7349",
"&. c #93744A",
"*. c #957B4C",
"=. c #9D7A4B",
"-. c #987844",
";. c #886951",
":. c #8B7556",
">. c #917A53",
",. c #9B7A54",
"<. c #987957",
"1. c #916D44",
"2. c #A47D43",
"3. c #AA7B43",
"4. c #A47C4B",
"5. c #AB7A49",
"6. c #A87747",
"7. c #A37C53",
"8. c #A77B55",
"9. c #B07F43",
"0. c #815574",
"q. c #855879",
"w. c #94587B",
"e. c #8F5E6A",
"r. c #85617A",
"t. c #9E7265",
"y. c #A2686A",
"u. c #AD7168",
"i. c #A4813E",
"p. c #B78532",
"a. c #958147",
"s. c #9C8053",
"d. c #BD8543",
"f. c #A3845A",
"g. c #A88253",
"h. c #B78756",
"j. c #BA9154",
"k. c #A78047",
"l. c #9B8361",
"z. c #A58867",
"x. c #B98E63",
"c. c #B7A17E",
"v. c #C99347",
"b. c #DC9B45",
"n. c #D59C4C",
"m. c #DB9A4C",
"M. c #D7954A",
"N. c #CB9955",
"B. c #D39C54",
"V. c #D59958",
"C. c #E19B4B",
"Z. c #CCA152",
"A. c #C99C66",
"S. c #D59C64",
"D. c #C79F74",
"F. c #C9A16C",
"G. c #CFA771",
"H. c #8D5B83",
"J. c #8D5886",
"K. c #945685",
"L. c #935985",
"P. c #95568A",
"I. c #9A558C",
"U. c #94598A",
"Y. c #9A5A8B",
"T. c #995685",
"R. c #9E5A91",
"E. c #985790",
"W. c #A35D94",
"Q. c #A85F9A",
"!. c #9A668D",
"~. c #9E6992",
"^. c #A36194",
"/. c #A56299",
"(. c #AA639B",
"). c #AC689C",
"_. c #B46D9B",
"`. c #AA729D",
"'. c #A6638F",
"]. c #AF69A1",
"[. c #B46BA4",
"{. c #B76CA8",
"}. c #BC73AC",
"|. c #BB7AAE",
" X c #B371A6",
".X c #BE74B1",
"XX c #BF78B0",
"oX c #AF72A2",
"OX c #C276B2",
"+X c #C57CB5",
"@X c #C97BB7",
"#X c #C67DB9",
"$X c #CB7CBA",
"%X c #CD77B9",
"&X c #D17ABC",
"*X c #D07AC1",
"=X c #CE79C0",
"-X c #88888A",
";X c #BCA387",
":X c #BD80AF",
">X c #BF84B2",
",X c #DAB892",
"<X c #D7B686",
"1X c #E2BF95",
"2X c #C481B3",
"3X c #C880B9",
"4X c #D1BAA2",
"5X c #D4C6BC",
"6X c #DFC9AF",
"7X c #E7C9A7",
"8X c #E5CFB6",
"9X c #F0D9BB",
"0X c #D4CACE",
"qX c #CDCFD9",
"wX c #D2CDD8",
"eX c #D8D0CB",
"rX c #E6D6C7",
"tX c #F3DCD0",
"yX c #F7E3D3",
"uX c #F7E0CF",
"iX c #E9E6EE",
"pX c #FAEBEA",
"aX c #F5EEFC",
"sX c #FAEBF6",
"dX c #EDF1FB",
"fX c #ECF2F6",
"gX c #F3F2F6",
"hX c #F3F1FD",
"jX c #F9F1FA",
"kX c #F8F6F7",
/* pixels */
"                                                                                                                                                      ",
"                                                                                                                                                      ",
"                                                                                                                                                      ",
"                                                                                                                                                      ",
"                                                                                                                                                      ",
"                                                                                                                                                      ",
"                                                                                                                                                      ",
"                                                                                                                                                      ",
"                                                                                                                                                      ",
"                                                                                                                                                      ",
"                                                                                                                                                      ",
"                                                                                                                                                      ",
"                                                                                                                                                      ",
"                                                                                                                                                      ",
"                                                    F F F F F F F F F F F F F F F F F F F                                                             ",
"                                                  H ; # 2 2 2 2 # ; 3 3 3 2 2 # # # ; ; 2 w                                                           ",
"                                                  H ; # * 3 3 * < @ ; ; ; ; ; @ ; ; # # 8 q                                                           ",
"                                                  F 0 3 * 3 3 3 3 3 2 2 2 2 3 0 2 0 3 w 3 w                                                           ",
"                                                T W P P Y { [ [ / P P P P P P ' ' ' { { ' ] T T                                                       ",
"                                            q 2 3 Q H.L.^.+X2X2X!.L.H.H.L.L.Y.:X2X+X2X+X>X!.5 2 8                                                     ",
"                                            q 3 * / L.I.W.@X#X#XW.P.L.K.P.P.R.#X$X$X%X&X3X~.5 3 2                                                     ",
"                                            q 3 = / Y.I.W.#X$X#XW.P.P.U.P.P.R.$X$X@X%X%X2X~.d 5 6                                                     ",
"                                            K U K | (./.).}.}.}././././././.(.}.{.{.@X%X#X`.I K K W                                                   ",
"                                      8 0 5  .H.L.`.3X#X}.I.I.I.}.#X#X#X#X#XXXR.P.I.}.*X$X|.H.r. .w 3 2 F                                             ",
"                                      2 0 d q.L.I.[.$X@X}.I.P.I.}.#X#X@X@X#XOXI.I.P. X*X$X}.L.q.r.5 0 2 H                                             ",
"                                      ; * 4 0.K.I.{.%X$X}.T.K.I.}.$X$X%X$X$XOXI.I.P. X$X$X.XI.L.q.d * 3 H                                             ",
"                                      # < f | L.I.{.%X$X}.W.R.R.{..XOX@X$X$X@XQ.^.R.].}.OX{.W.W.!.L J J K                                             ",
"                                      8 * 4  .L.L.[.%X$X@XOXOX|.W.R.I.].#X$X$XOX#X+X(.Y.Y./.@X@XOXJ.q. .Q q q q                                       ",
"                                      2 * 4 | H.L.].$X$X$X#X#X#XW.I.I.].#X$X$X$X@X$X/.L.K.^.#X$X@XI.L.H.Q 4 8 2                                       ",
"                                      3 3 d 0.L.P.[.$X$X$X$X$X#XW.I.P.(.#X$X$X%X$X$X/.K.K.^.$X%X@XI.P.H.^ 3 @ 8                                       ",
"                                      w 6 U q.Y.R.[.#X#X$X%X%X@XW.K.Y.).+X$X$X$X$X#X/.P.P./.#X$X@XW.I.J.^ 4 @ 8                                       ",
"                              G w w K  .| 0.oX.X.X[.^.W.(.$X%X$XOX}.}.[.W.W.Q.$X$X#X/.I.P.W.$X$X$X}.}.|.| = @ 2                                       ",
"                              w 2 ; K L.L.Y.OX$X$X(.L.T.W.$X$X$X%X%X$X[.P.U.R.@X%X$X/.P.I.W.$X$X$X$X%X$Xq.* : 3                                       ",
"                              e 2 ; K L.P.Y.OX$X$X(.T.Y.W.#X#X$X%X$X%X[.P.U.R.@X%X$X/.L.L.^.$X$X$X$X$X#X0.* : 3                                       ",
"                              e # ; K L.P.I.+X$X%X[.P.I.W.#X#X#X$X$X%X[.P.P.R.#X%X$X/.L.L.^.$X%X$X@X3X2Xq.* @ 0                                       ",
"                              e # : K L.P.I.OX%X%XOX{.}.[./././.OX@X%X[.P.P.R.@X%X$X/.L.L.W.$X%X@X(./.^.[ * : 0                                       ",
"                              e # : K L.P.Y.OX=X$X$X$X#X}.I.I.I.}.#X%X[.P.P.R.@X%X$X(.L.P.W.$X%X#XI.P.L.] * @ 3                                       ",
"                              e @ : K L.P.I.OX*X$X$X%X#X}.I.I.I.}.$X%X[.P.P.R.@X%X$X/.P.I.W.#X$X#XI.P.K.^ # : 0                                       ",
"                              e # ; K L.U.K.}.$X$X@X%X#X}.I.P.I.}.$X%X[.P.P.R.@X%X$X(.P.K.~.:X:X|.Y.P.P.^ # : 0                                       ",
"                        e w e q < # K L.L.K./.].(.}.%X#X}.I.P.I.}.$X%X[.P.P.R.@X%X$X(.I.K.q.{ { { H.P.P.^ # : 0                                       ",
"                        2 # # # 0 * K L.L.L.P.I.I.[.%X#X}.P.L.I.}.$X$X[.P.P.R.@X%X$X(.I.U.| 6 6 d q.L.L.^ ; : 0                                       ",
"                        3 < # # 3 * K J.L.L.P.I.I._.%X#X}.P.P.I.}.$X%X[.P.U.R.@X%X$X(.I.H.| 3 3 6 q.H.L.^ * ; 3                                       ",
"                        3 * 3 < * * K J.J.L.U.E.I._.&X$X.XP.P.P.}.@X$X[.L.L.Y.$X#X#X/.U.H.| 3 0 6  .L.H.Q = * ;                                       ",
"                      h M S Z A A D ) / ^ / H.P.I.'.[.[.).P.L.L.).[.[.(.L.L.Y.[.[.oX0.] ^ Q 3 @ = Q ] ^ ) S Z M h                                     ",
"                G 3 % i a.a.4.N.B.n.4.& 3 4 0.P.I.L.L.K.T.T.L.L.U.P.P.K.L.L.I.I.T.w.L - - * % @ : 3 6 - S 7.g.>.> * @                                 ",
"                G 3 * O *.2.+.v.b.m.7.& 2 4 0.T.I.L.U.L.K.T.K.U.P.P.P.L.L.L.P.I.T.w.L @ : > < : ; # ; = S 5.5.>.o 3 *                                 ",
"                e * % y =.3.#.v.n.N.,., ; 4  .U.P.J.J.L.K.L.L.L.L.L.T.T.w.T.P.E.E.H.I 7 ; # # # @ < > & S 2.2.*.. & *                                 ",
"                n m c B h.d.d.O.-.=.$.v v C ) { { ] [ [ { { { [ e.y.y.y.u.u.y.[ ' ' I G F F 2 2 % m c v D 2.2.-.V V Z R                               ",
"          q 0 3 ~ s.g.3.V.m.B.B X . N ,.4.<.s - 4 = 4 - 6 6 6 u ;.8.8.h.V.S.x.t - 6 W       2 * , :.4.4.=.i.O.@.B.V.A.M ; # r                         ",
"          q * * S 2.3.#.M.b.n.N 0 % c 4.5.,.p > ; : 3 # 8 7 8 , $.2.3.d.b.n.j.y * 9 W       # @ O ,.3.3.2.+.3.#.b.m.V.N % # F                         ",
"          < % X V @.@.p.n.n.Z.N ; > c 7.5.<.i > * * 8 # : ; < X $.2.O.p.m.n.j.+ @ 8         # < , <.4.4.4.3.3.#.m.m.V.B X % e                         ",
"          n x s A 3.2.i.g.g.g.x @ # n ;.$.` x l s u # < , l p b 1.5.2.d.M.M.h.X 8 #         e w j ` %.$.-.5.3.+.v.N.N.V b c E                         ",
"    3 0 % :.>.,.4.3.4.%.s u t > ; 2 < , , t $.*.,.C @ % z >.,.4.4.+.3.+.#.3.,.O 0 #               1 O . V 3.+.+.O.9.+.j.N.A.<., 8 0 < < 2 G           ",
"    * # % &.4.5.3.+.O.*.u = * ; # 2 < > : i &.O.2.C * % l =.4.3.5.+.+.@.3.4.>.X * <               # < > S 5.+.O.O.5.3.v.b.m.7.& 7 0 % > 8 F           ",
"    # # % %.3.3.3.3.2.*.O * # % * * : ; ; & %.3.4.C # @ l 4.5.3.4.4.4.3.3.2.&., # 0               2 2 * Z 4.2.2.O.3.+.v.m.B.7.. : < = 3 3 w           ",
"    2 # % &.3.3.3.3.2.%.g e h t t t , F F j :.*.<.C ; @ g 4.2.2.z.z.z.g.@.@.-.g G F W             G q 0 ~ >.,.*.2.+.3.A.G.G.f.t t , j H F T           ",
"    2 # % &.3.+.O.3.3.f.0XqXwXc.h.h.;X0XwX0XE i p & ; @ g 2.O.k.6XtXtX1XN.M.F.5XqXqXo.q q F             n p p s =.3.4.7XuXuX7Xh.h.x.5XqXqXX.q q w     ",
"    * # & &.3.3.O.O.5.f.sXhXjX<XB.m.,XpXaXiXT ; # < ; @ g 4.2.4.rXsXsX7XB.b.G.pXdXdXX.; 0 q               % > , 7.+.8.rXaXjX9XV.C.V.yXdXdX-Xq # q     ",
"    * 3 & &.4.4.2.4.4.f.sXaXsX<XB.n.,XpXaXiXT 7 7 * < * g 4.2.s.rXaXaX8XV.n.G.pXhXgXo.< < q               : @ , s.O.7.rXdXhX9XS.m.S.uXgXfX-X; # 0     ",
"    3 3 * :.7.7.,.<.,.z.pXgXpX,XA.F.4XsXaXiXW 2 # < < = n ,.,.l.rXjXjX8XF.A.D.pXhXkXo.< 8 q               @ 2 1 >.4.<.eXhXgX9XF.S.D.yXaXhX-X@ @ 0     ",
"          x c x x k x z ( _ _ C N v E ..} ..0 * < % < * < b x x ! } } ~ N B N _ ..( n < < q                     x c k ! _ _ ~ v N m ( } ..T < : 0     ",
"          % & % < = > > ; # @ % % : * 3 0 < * = @ < * 8 8 & % * 8 # 2 % & o % # 9 : = * 0 q                     % & = # : > * < @ * % * 2 0 @ @ q     ",
"          * = 2 2 3 @ ; 8 9 2 ; ; ; * = @ @ * 3 8 ; 3 8 7 % 8 2 2 < # @ 0 3 ; 8 2 < # # 3 q                     @ * < ; 2 @ 3 $ ; < > $ 8 2 @ < 0     ",
"          q 3 2 8 2 2 8 8 2 2 2 8 8 3 3 3 2 3 3 2 3 3 8 2 2 2 3 2 2 0 2 2 3 2 8 8 2 2 2 2 G                     q 2 2 2 2 0 3 2 8 2 # 8 2 2 2 3 q     ",
"                                                                                                                                                      ",
"                                                                                                                                                      ",
"                                                                                                                                                      ",
"                                                                                                                                                      ",
"                                                                                                                                                      ",
"                                                                                                                                                      ",
"                                                                                                                                                      ",
"                                                                                                                                                      ",
"                                                                                                                                                      ",
"                                                                                                                                                      ",
"                                                                                                                                                      "
};
