/* XPM */
static char *_5eeec3572334b92d3063c570e1380fb8PCovruZgRYYQMqX[] = {
/* columns rows colors chars-per-pixel */
"75 75 235 2 ",
"   c None",
".  c #5E5437",
"X  c #654F3E",
"o  c #6A4F3D",
"O  c #64513D",
"+  c #6D533D",
"@  c #695638",
"#  c #74553E",
"$  c #735A3D",
"%  c #7D5A3E",
"&  c #785838",
"*  c #7A623B",
"=  c #5E5342",
"-  c #5F5148",
";  c #644F42",
":  c #694F42",
">  c #644F49",
",  c #625042",
"<  c #6B5342",
"1  c #6F5845",
"2  c #6A5649",
"3  c #725643",
"4  c #745A44",
"5  c #7B5B42",
"6  c #725A49",
"7  c #7B5E49",
"8  c #6D5C50",
"9  c #7D684B",
"0  c #7D6850",
"q  c #835C3C",
"w  c #8A5E3C",
"e  c #895C38",
"r  c #8C6434",
"t  c #84613D",
"y  c #8B623D",
"u  c #8C6A3C",
"i  c #836939",
"p  c #92643D",
"a  c #936D3C",
"s  c #926C35",
"d  c #8E703F",
"f  c #9B7637",
"g  c #95723C",
"h  c #9A753B",
"j  c #9E7D3D",
"k  c #967236",
"l  c #8B682C",
"z  c #A37E3D",
"x  c #835E43",
"c  c #8B5E41",
"v  c #856244",
"b  c #8C6443",
"n  c #866A45",
"m  c #8C6A45",
"M  c #84644A",
"N  c #8B674A",
"B  c #8C6A4C",
"V  c #866A4D",
"C  c #926543",
"Z  c #956B45",
"A  c #9B6D45",
"S  c #946B4A",
"D  c #9B6E4B",
"F  c #926749",
"G  c #8A7448",
"H  c #957342",
"J  c #9D7345",
"K  c #9D7E43",
"L  c #95724D",
"P  c #9D724B",
"I  c #9D7D4B",
"U  c #967842",
"Y  c #8F6F52",
"T  c #806A5D",
"R  c #976E51",
"E  c #8B7553",
"W  c #977352",
"Q  c #9C7251",
"!  c #9A7B56",
"~  c #A16F45",
"^  c #A46F49",
"/  c #A27145",
"(  c #A27E44",
")  c #A2724A",
"_  c #AC774A",
"`  c #A37D49",
"'  c #AB794C",
"]  c #AC7646",
"[  c #B27C4C",
"{  c #B97F4E",
"}  c #A37652",
"|  c #A57B54",
" . c #AB7B52",
".. c #A97E5B",
"X. c #B27E55",
"o. c #806D61",
"O. c #877768",
"+. c #9C803D",
"@. c #A3803D",
"#. c #AA853C",
"$. c #AE8A3D",
"%. c #A98736",
"&. c #B38E3D",
"*. c #B4913D",
"=. c #9D804B",
"-. c #9D8147",
";. c #9C8151",
":. c #948158",
">. c #AB8644",
",. c #AB8945",
"<. c #A3824B",
"1. c #AA864C",
"2. c #AB8B4A",
"3. c #A68647",
"4. c #B38D41",
"5. c #B08C4B",
"6. c #BB804E",
"7. c #AE9140",
"8. c #B49244",
"9. c #B5914C",
"0. c #B8904B",
"q. c #BE9D4C",
"w. c #B89143",
"e. c #A48553",
"r. c #AA8459",
"t. c #AB8857",
"y. c #B58254",
"u. c #BA8354",
"i. c #B4845B",
"p. c #BB865A",
"a. c #BC895B",
"s. c #B28B54",
"d. c #B59352",
"f. c #B2945B",
"g. c #BD9C5B",
"h. c #B99A54",
"j. c #AF9654",
"k. c #92877E",
"l. c #92897E",
"z. c #9F8D7F",
"x. c #AB8B6C",
"c. c #AA8666",
"v. c #B58963",
"b. c #BD8D63",
"n. c #B68863",
"m. c #BB9A62",
"M. c #B99565",
"N. c #A38D7D",
"B. c #AD8F76",
"V. c #A7937A",
"C. c #BCA071",
"Z. c #BDA362",
"A. c #C38C5D",
"S. c #C18956",
"D. c #C19E5C",
"F. c #D5945E",
"G. c #C7A74E",
"H. c #C5A355",
"J. c #C9A655",
"K. c #CCA955",
"L. c #C5A35B",
"P. c #CAA55A",
"I. c #CCAB5C",
"U. c #D1AF5F",
"Y. c #CEB15E",
"T. c #D3B35C",
"R. c #D0B556",
"E. c #C48E62",
"W. c #C18F68",
"Q. c #C59164",
"!. c #CD9565",
"~. c #C29D61",
"^. c #C5936B",
"/. c #CD966A",
"(. c #CD986C",
"). c #CE9866",
"_. c #D19664",
"`. c #D19667",
"'. c #D29666",
"]. c #D29663",
"[. c #D09768",
"{. c #D19768",
"}. c #D29867",
"|. c #CF9E76",
" X c #C59A75",
".X c #C5A263",
"XX c #C9A462",
"oX c #CCAC62",
"OX c #CDAC6B",
"+X c #D1AF63",
"@X c #D0AF6B",
"#X c #CFB260",
"$X c #D4B263",
"%X c #D3B36A",
"&X c #D6BA67",
"*X c #C6A871",
"=X c #D0B074",
"-X c #CFAB77",
";X c #8E8881",
":X c #948781",
">X c #938A81",
",X c #9C8B80",
"<X c #969289",
"1X c #A38E81",
"2X c #A49183",
"3X c #AB998B",
"4X c #A99487",
"5X c #B59C86",
"6X c #B99E86",
"7X c #B59E8A",
"8X c #B99F89",
"9X c #B39D94",
"0X c #A89892",
"qX c #BBA28C",
"wX c #B6A088",
"eX c #BCA693",
"rX c #B6A299",
"tX c #BEB099",
"yX c #C2A58E",
"uX c #C7A686",
"iX c #D2A885",
"pX c #D6BA85",
"aX c #C6A891",
"sX c #C8B298",
"dX c #D5B699",
"fX c #D2B69C",
"gX c #DAB79B",
"hX c #D8B79A",
"jX c #E3B089",
"kX c #C1AEA8",
"lX c #C5B4AA",
"zX c #D8BCA5",
"xX c #CEBDB5",
"cX c #DAC5A7",
"vX c #DDCAC2",
/* pixels */
"                                                                                                                                                      ",
"                                                                                                                                                      ",
"                                                                                                                                                      ",
"                                                        zXfXdXdXdXdXdXdXdXdXdXdXdXdXdXaX6X6XeX                                                        ",
"                                                    aX|.!.`.!.].F.F.].].].].].].].].!.!.S._ } c.x.                                                    ",
"                                            iX X/.!.].{./.!.`.`.`.`.`.`.`.`.`.`.`.!.{./.{.{.!.{.!.i.| ! B.                                            ",
"                                  hXjX(.(././.{.`.].].!.!.`.!.].`.`.`.`.].].`.`.!.A.{ a././.!.!.].].].!.p.p.p.a. X8X                                  ",
"                            gXiX|.(.!._.!.!.!.!.Q.!.^.A.[ _ _ _ A.a.u.{.`.].`.`.!.!.Q.p.u.Q.Q.!.!./.!.!.!.!././.^.r...x.yX                            ",
"                          iX!.F.].!._.!.A.A.A.' _ ' ' y.!.!.!.!./.{.!.{.!.!.!.!.!.!.Q.Q.A.[ / / i.b.^.A.] { !.E.A.!.u.] ) x.                          ",
"                      gX|.`.`.!.`.A.u.u.u.u.u.u.A.`.{.!.!.!.!.!.!.A.6.6.y.u.y.u.y.y.u.A./.!.p._ J A P i.p.!.!.S.u.y.y.y.i.i.n.yX                      ",
"                    iX(.].].{.(.p.u.Q.E./././.!.!.!.A.' ' ' _ _ _ y.A.A.a._ / J / ) /  .)  .b.Q.b. .p p p } ' A.(.b.b.i._ '  .v.B.                    ",
"                zX/.{./.!.].F.].!.!.!.`.A.A.A.' / J P P P S Z A Z A P P P P P P P ) ) P P A J ) _ y.b.n.P b Z P A y.E.!.!.A.X.) Z W qX                ",
"              gX(.`.`.].].`.].).A.y.y.y.) ) P J Z C S P D C C C C Z P J P P P P P P P ) A C N N C Z P } ..C e b N N N P i.p.Q.p.A C Y 8X              ",
"              hX!.`.`.`.!.!.y.' _ J J P P D C y C Z S Q P P P P W B v x x v v v v v N Q R P A A Z p y C P P S b q N S F w p  .E.Q.D x 4X              ",
"              hX/.!.!.a.] / / ) P P S S b b S Q P P Z Z Z r Z y % 1 : : : X X O X o 3 4 5 q Z S S P P S y b P c.Q b y y w p  .b.' P N 1X              ",
"              hX/.E.y./ / P P P S b N C P P Z b C a h ` h >.OX=.$ O , > , , , , , , , O O + 3 3 # x N N F D C C  .| ' i.i.y.y._ A S v 1X              ",
"              fXa.' J P P P b y b S Q L r l s.m.` h d..X,.$.L.=.$ , , , , , , = = = , , , , > , , < < + # x v F t Z )  ._ | J P b q 4 2X              ",
"              5XP ) P P D b q F D b q I g.7.H.OX,.f d.XX#.$.L.;.4 , , O O ; ; , , , , , , , , , , , , , , O , 4 4 5 N S D F x q % 5 M 3X              ",
"              wXA C C b q q N F b q H %XI.*.J.+X,.f 5.h.>.$.L.K $ , , O , , , , , , , , , , , , , , , , , , , , , 1 5 Z ) / / ) _ / v.fX              ",
"              zXb.p.i.i.n.n.n.) P P ` oXK.*.P.I.,.s ,.XX9.4.L.I $ , , , , , , , , , , , , , , , , , , , , , , , , X M Q i.^.i.^.^.!.b.qX              ",
"              6Xi.Q.p. .b.W. .p J <.K oXK.4.P.$X,.<.XXP.$.$..XI 4 , , , , , , , , , , , , , , , , , , , , , , , ; , # N P A b P ) ] ) 5X              ",
"              6X) / A e D P P r t.m.K oXK.4.P.+X,.f 9.P.$.$.XXI $ O , , , , , , , , , , , , , , , , , , , , , , , ; + v P S y D P / P 8X              ",
"              6X) ) S y P Q P r e.f.K I.K.4.P.+X,.f 9.P.#.&.L.+.;.E O ; , , , , , , , , , , , , , , , , , , , , , ; # v P Z y S P / P 8X              ",
"              5X) ) Z y D Q P r 1.f.j I.K.4.P.+X,.f 9.L.,.&.J.%X=X:.@ , , , , , , , , , , , , , , , , , , , , , , ; # b P P A P P / P 8X              ",
"              5XD P S y P P P y t.j.+.I.K.&.P.$X,.f 9.L.2.Z.%X+Xt.* @ O , , , , , , , , , , , , , , , , , , , , , ; + v P P S Q P / P wX              ",
"              N.N P S b P J P y r.d.j oXK.&.P.+X,.f 9.*XuXcXC.I 5 , , > ; , , , , , , , , , , , , , , , , , , , , ; + v P Z y S P / P wX              ",
"              N.N P S b P J ) y r.f.K oXK.4.P.+X,.f d.pXcXsX:.n 4 , = , , , , , , , , , , , , , , , , , , , , , , ; + v P D y S P / P 8X              ",
"              N.N P S c D J / C | e.K oXK.4.P.+X3.f d.pXcXtXV.E 4 . . O , , , , , , , , , , , , , , , , , , , , , ; + v P D y D P ~ Q 7X              ",
"              N.N P S b D J y.| b t K oXK.&.J.$X,.3.L.M.5XxXkX7XT = = , , , , , , , , , , , , , , , , , , , , , , ; + v P Z w S P / S 4X              ",
"              N.N J Z c ) s.' } N t K oXK.&.J.T.OX@Xq.<.cXvX9X9XrXO.= > > , , , , , , , , , , , , , , , , , , , , ; + v P Z w S P / C N.              ",
"              N.N ) D S P ) ) P m t K oXI.&.J.T.I.d.( ,.M.cX0X2XlXN.O , , , , , , , , , , , , , , , , , , , , , , + % N P S b S P J N 1X              ",
"              z.N P Z y D ) ) P N t ` oXI.8.oX&Xd.a ` XXf.fXlXkXrXO., , , , , , , , , , , , , , , , , , , , , = O 3 N | | y q b A J N 2X              ",
"                6XQ S y D P ) P m v I oXJ.w..Xf.u r s.XX1.x.eX4Xo.2 ; , , , , , , , , , , , , , , , , , , , , , , 3 N P  .i.i.) J P N 1X              ",
"                yXP Z y D P ) P N v K I.T.&X2.U * u 8.H.>.U c.E 4 O O , , , , , , , , , , , , , , , , , , , , , , 3 N P / / ) P J J N 1X              ",
"                yXQ Z y D P ) J b t -.Y.T.q.@.2.<.g 8.H.$.,..X;.$ O , , , , , , , , , , , , , , , , , , , , , , , 3 N P ) / ) P P J N 1X              ",
"                yXP P Z P ) / P y t <.OX5.f g.oX,.f 0.L.$.4.L.I $ , , > , , , , , , , , , , , , , , , , , , , , < 3 N P A y D P A P N 2X              ",
"                eXP P P P ) ) P u e.=Xh.f k D.OX,.h 0.P.,.$.H.K $ , , , , , , , , , , , , , , , , , , , , , , , , # N P A e P P P P uX                ",
"                eXQ P ) ) P P P y J d.@.d.>.L.oX,.h 0.H.$.4.L.-.4 , O , , , , , , , , , , , , , , , , , , , , , , # N D C C P P P P                   ",
"                  Q ) P D ) P Q N b g 2.L.4.J.Y.,.h 0.H.,.>.~.I 4 , , , , , , , , , , , , , , , , , , , , , , , , # N Z w P P P P P                   ",
"                3XN P P P ) P Q N & u OXI.*.G.Y.>.J 0.P.$.@.h b $ < ; , , , , , , , , , , , , , , , , , , , , , , # N S p D P P y F                   ",
"                3XN P P J ) P Q N % g OXI.*.G.Y.1.U 0.L.$.#.a u L 9 , , , , , , , , , , , , , , , , , , , , , , , # N Q ) ) P P b B                   ",
"                  M Q P J / J P N v K oXJ.*.J.oX1.h w.P.#.#.h M.m.G , , , , , , , , , , , , , , , , , , , , , , , # N S p D P P v B                   ",
"                3Xv P P J P P L N % h oXI.*.J.+X>.f 8.L.,.8.@X*XG O , , , , , , , , , , , , , , , , , , , , , , , 3 N S y P P P v B                   ",
"                3Xv P P P P F v x b h oXJ.%.H.+X>.f 9.H.8.+Xh.U $ , ; , , , , , , , , , , , , , , , , , , , , , X 3 M S P P ) D b B                   ",
"                3XM P ) A p C Z D Z g OXI.H.I.+X3.f 9.#XI.d.H n 4 O , , ; , , , , , , , , , , , , , , , , , , , X 3 5 b P P ) D b S                   ",
"                  M Q ) ~ ' i...P C h oXJ.8.P.+X3.h d.%XD.U N V 4 O O , , , , , , , , , , , , , , , , , , , , , ; 3 5 b P P P P b S                   ",
"                  x.Q P ) y.| Z S Z J L.q.$.J.U.,.( g.d.( H m V 4 O , , , , , , , , , , , , , , , , , , , , , , ; 3 5 b P P P P b S                   ",
"                    W P ) J P y m F u d.I.*.J.T.oXOXH.g a ` a n 4 , , O , , , , , , , , , , , , , , , , , , , , ; 3 5 b P P P P b S                   ",
"                    Q P ) ) J b N Z U %XI.*.G.R.I.g.3.<.g ( g n 4 , , O , , , , , , , , , , , , , , , , , , , , , 3 5 b J / ) P y B                   ",
"                    Q ) ) ) ~ b N C h oXP.8.J.&Xj.g ( ~.h ( d n 4 ; , O , , , , , , , , , , , , , , , , , , , O ; 3 N P / J P D p Y                   ",
"                    Q ) ) ) ~ b N C g oXI.8.oXg.g r 5.D.k K m * + X , , , , , , , , , , , , , , , , , , , , , , , # N P J P P P P V                   ",
"                    Q ) ) ) / b N C g oXT.+X9.U u H 9.D.h I m $ O , , ; , , , , , , , , , , , , , , , , , , , , O # N P P P P P P M                   ",
"                    R P P J / b N C g oX$XH.@.,.K h 9.D.g ! $ O , , , , , , , , , , , , , , , , , , , , , , , , + v P D ) P P P P M                   ",
"                    v D P P / b N Z U OXd.z d.oX,.f 9.~.H B 1 ; , , , > , , , , , , , , , , , , , , , , , , ; , $ P i.X.^ ) J J P M                   ",
"                    v P P P P b N N H m.h k D.+X,.f >.<.u # ; ; , , , , , , , , , , , , , , , , , , , , , , , X # Z ) ) ) ) P J P M                   ",
"                    M P A y S P C q b <.,.j D.$X,.h >.I t + > ; , , , > , , , , , , , , , , , , , , , , , , , , $ F P P P P D y S M                   ",
"                    v D A y S P C t N H L.8.H.Y.,.J I * O O , , , O , , , , , , , , , , , , , , , , , , , , , X $ F P P P P D e D M                   ",
"                    M P A y S Q b N S g L.8.J.Y.1.n v O , , , , O O , > > , , , , , , ; , , , , , , , , , , , ; $ F P P P P P Z v                     ",
"                    M P A b N D N N F a L.8.q.oXe.4 O , , , , , , , , , , , , , , , , , , , , , , , , , , , , ; $ F P ) P Z P Q v                     ",
"                    M P ) P t Z C N F a L.4.#.d.m O , , , , , , ; ; ; O , O O O O O X X X , ; ; , ; , , , , , , $ F P P Z y D P v                     ",
"                    V P P Q y Z b b F g ~.2.<.i @ , , , , , < , : < X 1 4 4 4 4 4 4 4 4 4 6 < , , , , , , , , , $ m P P S w D P M                     ",
"                      M P D b Z P C q Z m.G $ O O + < < < 4 7 4 5 7 4 4 5 5 5 5 5 4 4 4 4 4 4 4 1 < < X , , , , $ m P P S c D Z v                     ",
"                      V S P C Z P F x b r.& @ 2 1 1 6 4 4 5 5 % % 5 5 5 4 4 4 4 4 3 3 3 3 # 5 5 5 7 4 3 1 < ; ; # Z P P S y Z q 5                     ",
"                      V P D t Z m x 5 4 $ @ O < < < + # 5 5 5 % % 5 5 % # + + + + # 5 5 5 5 5 # # + + < 1 1 6 < # F P P Z y S x 4                     ",
"                      V L D b N N 5 5 4 < 1 1 4 6 6 # 3 4 4 4 5 5 5 4 4 5 5 5 5 5 5 5 % % 5 4 4 4 4 4 6 1 < , + 4 S C y P D q 5 4                     ",
"                      9 N x % B N % $ 4 : , O O < 3 # # # # # % 5 5 5 4 7 5 5 5 5 5 5 5 5 5 5 5 # # + + X X O O 3 M b b L v 5 4 1                     ",
"                      0 5 5 # 5 x % $ < < 2 4 4 6 6 7 4 4 4 5 5 5 5 5 # + + + + + < 3 6 7 4 % 5 5 5 5 4 4 4 6 , 4 5 q b B % # 4 <                     ",
"                      8 6 6 < 3 4 1 , ; , , , , , , < , , , , , , , , , , , , , , , , , , , , , , , , , , , , , , o 7 V 7 6 < , -                     ",
"                      <Xl.k.:X:Xl.k.l.l.l.l.>Xl.l.>Xl.k.l.l.l.l.l.l.l.l.l.l.l.l.l.k.k.k.k.:X>X>X>X>X>X>X>X>X;X;X>Xl.,X1X,X:X>X>X>X                    ",
"                                                                                                                                                      ",
"                                                                                                                                                      ",
"                                                                                                                                                      ",
"                                                                                                                                                      ",
"                                                                                                                                                      ",
"                                                                                                                                                      "
};
