/* XPM */
static char *_269330852914790e47302d5ab9858eb3kUvmCELjxAZEDEI[] = {
/* columns rows colors chars-per-pixel */
"75 75 239 2 ",
"   c None",
".  c #565A3D",
"X  c #5A5C3C",
"o  c #5A593A",
"O  c #5F603E",
"+  c #66642E",
"@  c #6C6B36",
"#  c #67633B",
"$  c #6C653C",
"%  c #6D6A3B",
"&  c #6A6637",
"*  c #726D36",
"=  c #736C3D",
"-  c #74683C",
";  c #6D743B",
":  c #6C7535",
">  c #737534",
",  c #747C34",
"<  c #74743C",
"1  c #7A753D",
"2  c #757B3C",
"3  c #7B7C3D",
"4  c #797936",
"5  c #737B2E",
"6  c #5C5C43",
"7  c #5C5C4A",
"8  c #575744",
"9  c #625E43",
"0  c #615E4D",
"q  c #605C51",
"w  c #5C6245",
"e  c #526C54",
"r  c #656244",
"t  c #6C6543",
"y  c #6D6B43",
"u  c #65624B",
"i  c #6B6649",
"p  c #6C6A4B",
"a  c #656A46",
"s  c #716644",
"d  c #746C43",
"f  c #7A6E43",
"g  c #736C4B",
"h  c #7B6F49",
"j  c #6F7242",
"k  c #6C734C",
"l  c #757243",
"z  c #7A7445",
"x  c #757B43",
"c  c #7C7B43",
"v  c #74724C",
"b  c #7C744B",
"n  c #757B4C",
"m  c #7D7B4C",
"M  c #646452",
"N  c #6E6B52",
"B  c #686852",
"V  c #746E52",
"C  c #716E5B",
"Z  c #6A775A",
"A  c #757252",
"S  c #7C7552",
"D  c #7D7A53",
"F  c #74725B",
"G  c #7A765C",
"H  c #7D7A5A",
"J  c #767A53",
"K  c #7C7A64",
"L  c #787865",
"P  c #6D7F65",
"I  c #557464",
"U  c #817D3E",
"Y  c #80773E",
"T  c #817644",
"R  c #827D44",
"E  c #82764C",
"W  c #837B4D",
"Q  c #897D4D",
"!  c #8B7B46",
"~  c #827652",
"^  c #837B53",
"/  c #897C54",
"(  c #827D59",
")  c #8A7D5A",
"_  c #807758",
"`  c #827E69",
"'  c #7C823B",
"]  c #778039",
"[  c #7D8143",
"{  c #7C8448",
"}  c #7D8256",
"|  c #7B8459",
" . c #7E934F",
".. c #7A866B",
"X. c #799172",
"o. c #81813E",
"O. c #848D3E",
"+. c #898C3E",
"@. c #86933E",
"#. c #89963F",
"$. c #828244",
"%. c #858C43",
"&. c #8A8D45",
"*. c #84834C",
"=. c #8A844C",
"-. c #868B4B",
";. c #8B8C4B",
":. c #8C8245",
">. c #918B4B",
",. c #90894A",
"<. c #869343",
"1. c #8A9244",
"2. c #85914C",
"3. c #8C924C",
"4. c #8E9A4C",
"5. c #899946",
"6. c #91944D",
"7. c #929A4E",
"8. c #858253",
"9. c #8B8454",
"0. c #8B8C52",
"q. c #84825B",
"w. c #8B835B",
"e. c #888A5A",
"r. c #928453",
"t. c #938C53",
"y. c #948C5C",
"u. c #998C5D",
"i. c #978957",
"p. c #8D9352",
"a. c #8B9555",
"s. c #929453",
"d. c #949B53",
"f. c #93945A",
"g. c #939C5C",
"h. c #9B975A",
"j. c #A49B5E",
"k. c #A3965E",
"l. c #9CAB55",
"z. c #9BA55B",
"x. c #9DAC5A",
"c. c #98A558",
"v. c #9EB25C",
"b. c #9BB057",
"n. c #9AAB4F",
"m. c #A2AD5D",
"M. c #A4AB5B",
"N. c #A3B35C",
"B. c #A5B55C",
"V. c #84826B",
"C. c #898766",
"Z. c #958C66",
"A. c #9C9363",
"S. c #9A9C63",
"D. c #9E9B6C",
"F. c #979767",
"G. c #8A8574",
"H. c #8D8B73",
"J. c #878577",
"K. c #928D76",
"L. c #839879",
"P. c #9C9674",
"I. c #989678",
"U. c #8B996C",
"Y. c #A39564",
"T. c #A59A65",
"R. c #AA9B66",
"E. c #A3966C",
"W. c #A59B6B",
"Q. c #AA9D6B",
"!. c #A89767",
"~. c #A39B74",
"^. c #AA9C71",
"/. c #A29C7A",
"(. c #A09770",
"). c #A08F61",
"_. c #9DA462",
"`. c #9EAA61",
"'. c #9EA36A",
"]. c #97A766",
"[. c #9FB460",
"{. c #9DB06E",
"}. c #9AAD73",
"|. c #A3A463",
" X c #A3AD62",
".X c #A5AC6A",
"XX c #A9AC6A",
"oX c #A8A769",
"OX c #A4B363",
"+X c #A9B464",
"@X c #A5BA65",
"#X c #A6B36A",
"$X c #AAB46B",
"%X c #A7B96A",
"&X c #AABB6B",
"*X c #AABB65",
"=X c #B1BE6D",
"-X c #AAA273",
";X c #A7A677",
":X c #ABB473",
">X c #ADBB72",
",X c #ACBA79",
"<X c #B2B674",
"1X c #B1BC73",
"2X c #B3B879",
"3X c #B2A877",
"4X c #B3C273",
"5X c #B3C37A",
"6X c #B0C06F",
"7X c #7A9989",
"8X c #879A82",
"9X c #9A9682",
"0X c #9E9A83",
"qX c #9A9986",
"wX c #A19C83",
"eX c #95A38A",
"rX c #89A693",
"tX c #92A792",
"yX c #A7A286",
"uX c #A6B987",
"iX c #AEAA94",
"pX c #A6AA9D",
"aX c #A9AA9C",
"sX c #A7A597",
"dX c #B2AD99",
"fX c #B5B398",
"gX c #A8BA96",
"hX c #9BB3A6",
"jX c #A7A9A1",
"kX c #ABABA3",
"lX c #A8A7A3",
"zX c #B5BDA8",
"xX c #C1BDAB",
"cX c #B0CF9E",
"vX c #ABC5AB",
"bX c #B3C6B5",
"nX c #B8D4B3",
"mX c #B2CAAB",
"MX c #C8CCB0",
/* pixels */
"                                                                                                                                                      ",
"                                                                                                                                                      ",
"                                                  MXfX;XP.D.W.-X~.~.~.~.~.~.~.~.~.~./.P.Z.A ( fXfX                                                    ",
"                                          iXdXfX~.~.W.T.T.T.T.|.Q.Q.Q.Q.Q.Q.Q.Q.Y.Q.^.Y.W.W.A.^.P./.I.I.0X                                            ",
"                                  fXyX;X;X/.W.W.^.Q.Q.T.Q.R.!.R.Q.!.!.R.!.T.!.!.Q.T.!.Q.Q.Q.W.W.W.^.W.P._ K.G.G.sX                                    ",
"                              wX;XD.A.-XQ.W.3XW.T.!.W.W.!.Y.Y.T.!.!.!.Q.Q.R.R.Q.R.! ! i.Y.T.T.Q.!.T.Q.-XW.(./.yXI.V.V.                                ",
"                        iXP.~.~.Q.Y.Q.Q.T.T.u.u.Y.).i.r.r.r.u.Y.A.A.Y.T.!.Y.T.!.W.Q.Q.u.i.A.Y.A.W.^.W.W.Y.y.T.T.-XD.Z.q.A I.                          ",
"                    xXwX~.^.Q.Q.Q.T.r.r.r.r.Q u.u.A.Y.Q.^.Q.!.Q.W.W.W.-X-XW.Q.Q.W.T.A.u.W.u.W Q / u.r.T.Y.t.j.j.;.t.S.A.D.w.C.fX                      ",
"                  dXI.~.-XQ.T.k.W 9.A.W.W.Y.E.Q.W.W.Q.Q.Q.!.!.Q.u.9.Q =.8.Q Q Q =.=.y.T.T.Q.A.Q W z - Q =.j.j.j.j.h.,.Q Q 8.(.~.I.                    ",
"              dXyX/.~.-XQ.k.i.>.Q.E.E.W.^.Q.W.W.Y.y.Q T R Q Q Q u.A.W.A.9.W W Q W c =.9.Q 9.Y.W.W.y.W 1 - z =.t.R.Y.T.Y.u./ 9.^ K.H.zX                ",
"            iX/.~.W.W.Q.!.R.R.T.T.W.Q.W.A.y.8.W W W Q Q Q W b b b W / / / ^ W b W W Q W z T W T W y.W.A.9.$ d E E / E.^.E.^.E.) q.g K 9X              ",
"          yXP.D.W.Q.oXR.T.!.T.u.A.y.=.Q Q ^ W z z b W m z d d b b ~ ^ ^ S ~ ^ w.w.~ W W E b b f l z ^ 9.Z.E g g g S h s ) A.Z.(.Z.D V F J.            ",
"          yXP.W.Q.T.T.k.i.9.Q W E ^ / W z f l b m m m m D D ^ q.S g g g V V g t i i S w.) b b ~ W l % d / ^ b g V t S ) b d f w.^.F.` 0 K             ",
"          yX~.-XQ.h.r.Q W W / / ^ b d d z b D D D D ( D v t r t r 9 9 9 6 X 6 9 9 r r # t g S ~ m ^ m b d d S C.Z.g # d $ - d b W.u.^ G `             ",
"          /.;XA.r.! T T W / / b - f b ~ ^ ~ D ( i i i u 6 X 6 9 r X X X 6 w 6 X X X o X p D v t # d ~ ) S b l d 8.D.8.z W 8.W W.*.z / G K             ",
"          /.D.Q W W Q W E b b l ^ m S S g t t i i 9 9 9 u 9 6 8 o p | } k k v J | a o k 8.m l n m d % $ - b m l % z m A.F.D.A.Q =.R - g L             ",
"          H.8.c E Q W f s g b D y D r X r O v H H A A A D g u o p F.j j n ; ; x n F.d l *.2.x ; ; < ; m t.c d # l & v D m 8.E b f - $ t `             ",
"          K m =.Q z - d S ( b % x n o w H U.J v J n l j l l D g y ;X< x : : [ *.f.S.l l -.d.c.#X:X.X_.f.h.*.d % 8.n y # d f & - d # $ S 9X            ",
"          H.m @ = - - d t t y x ; { ;Xj n '.< 2 ; x 2 2 -.p.D.8.l *..X: 2.2.-.s._.S.x c -.3. X4X$X X`.p.s.;.W 8.F.x k D e.D.^.E.E.F.P./.iX            ",
"          0X~.D.-XE.E.W.P.q.m c 3.-.'.x ; a.|.[ 2.p.3.4.7.d.f.< @ p.3.:X,X,X<X X3.-.c R 3.<. X&X&X X X%.&.;.c 8.;Xx y D ^ 9.u.T E.~.~.Z.9X            ",
"          V.C.D.W / A.A.w.y { g.d.z.p.c [ %.3.$X1X1X=X*X7.z.;.c [ *.4. X5X&Xz.&.7.$.3 R 1.<.OX=X@Xm. X%.&.6.$.=.h.-.m % z Q W - E W ^ S H.            ",
"          V.D m b f W m b % 0.:X$XO.s.$.3 6.%.M.=X@XOXB.@.M.&.$.c -.%.m.&X&Xm.1. X3.$.U %.<.m.&X*XN. X%.+.&.1 3 ;.s.D.l = Q W $ W W ^ ( K.            ",
"          V.q.W d % W W ^ l p.$X X&.-.3 3 %.d.m.1XOXx.N.<.m.p.3 c s.%.*X&X@Xm.O.m.;.3 o.%.<.m.6XB.N.m.%.&.&.3 3 ;.3.:X*.% W Q $ W W ^ ( K.            ",
"          ` D m b d W W m @ -.XXM.6.-.$.3 ;.%..X1X&XOXm.<.c.d.3 c -.1.m.6X&Xl.1. X1.4 $.%.1.x.4XB.B.m.1.&.+.3 3 ;.;.'.l x Q z / Q W W D K.            ",
"          K ( m b d ^ W m % -.$X X;.0.c c ;.&. X1X%XOXx.O.d.;.c c -.1. X&X%Xx.O.<.%.$.$.%.<.OX&XN.B.OX%.+.&.$.3 ;.;..Xx < W ~ E ^ Q W D K.            ",
"          L D m d $ W W W < -..X X;.-.c R ;.1.m.1X@X[.x.<.z.s.*.3 ;.1.OX>X&Xx.O.z.;.3 3 %.<.OX4X*XN.z.1.1.&.3 $.;.;..Xl l m ~ s W W W D K.            ",
"          C D m b d 8.W b % -.$X X&.;.c U &.1.m.6X%Xv.b.<.m.s.R 3 ;.&. X&X%Xx.<.d.3.c c %.3..X Xb.OX X%.&.3.$.1 ;.3..Xl z m ^ t E W ^ D K.            ",
"          F D W d - W W m l 0.XX X&.;.3 U &.1.m.&X@Xv.b.#.m.6.3 c ;.&.m.%XOXx.1.OX3.4 $.3.%. X5XN.v. X3.;.$.c c 3.-..Xl z m S g ~ W ^ ( H.            ",
"          F D ^ b f E / w.m < 4  X1.;.3 U &.1.m.OXv.v.b.#.m.s.U 3 ;.&.M.@XOXl.1.x.3.4 > ' %. XOX@XN.`.%.-.$.c c &.$.XXl l m S g ~ ^ ^ ( G.            ",
"          F D W f - E w.Z.w.z >  X1.;.c U &.1.m.OX[.v.b.#.M.s.R 3 ;.1.m.%XOXl.<.OX<.3 ;.d.3.c.x.l.x.x.{ ;.s.=.3 &.3.:Xx < 8.S s ~ ~ ~ D `             ",
"          F m W b E / w.w.^ z 3  X2.-.c U ;.1.m.&X@X[.b.<.M.t.R 3 ;.&.m.@XOXl.#.m.3.3 $.3.4. Xc.x.c.z.p.h.s.R c ;.6.S.x < ^ ( s ~ ^ ~ D K             ",
"          C D ^ f f E / / E z c oX;.-.c R ;.1. X4X%X[.v.1.M.s.R 3 ;.&.M.OXv.l.1.m.3.3 c &.3. X%X[.@X%X3.;.;.R R ;.-.c < l l S s W ^ ~ H L             ",
"          L H D l f W E W Q l x oX;.;.3 3 ;.3. XOXOXb.x.@. X6.R c ;.1.m.OXOXx.1..X;.x R ;.3..XOX#XOXM.1.,.:.! R >.=.@ m Z.C.d d = z ( H L             ",
"            H.( = = / / Q W l z oX>.;.o.$.3.3. XOXN.N.m.1.m.6.o.R -.1.M. Xm.l.1. X;.c R &.1.m. XOXOXM.+.&.t.=.T ;.;.@ b ) Z.Z.W.Q W ~ A V.            ",
"            G.D = = / / Q Q l z XX%.&.4 3 ;.%. XOXN.N.N.<.M.6.o.3 &.1.N.B.N.l.#.m.6.3 3 O.<.B.B.N.B.N.O.O.;.c c 0.0.@ m S D 8.x R 8.q.p L             ",
"            G.( z z / / Q Q l z XX%.3.] ' 3.%.OXN.b.b.N.@.m.6.3 3 %.@.M.N.N.n.#.m.1.4 ' O.@.N.N.B.N.l.@.<.p.c n 0.0.@ m D ^ 8.W Q b D ` L             ",
"            V.q.m z / / W W l z  X%.;.' ' 2.%.x.N.N.b.N.<.+Xp.3 [ -.<.l.N.OXl.<.OX3.3 $.3.<.x.N.m.N.N.@.<.2.[ x 0.-.* z E z % W ^ ^ S F V.            ",
"            K q.Q W / E W W l x .X2.%.] ] -.3.OXN.OXb.x.<. X2.3 2 %.<.m.@XOXn.<. X-.2 c %.<.x.@XOX*Xx. . . .| { e.9.= E w.~ $ Q Q W ( yX              ",
"            H.( Q W / E W W z x `.d.2.{ { 3.d. XOXOXN.x.d.`.p.-.%.p.4.N.OXOXl.5.m.s.*.-.3.5.OXOXOX#X].}.cXnXnXvXeXH.i V S b y m m / H I.              ",
"            G.D Q W / E W Q z m ,X:X,X,X<X1X<X1X&X*X=X$X>X1X:X2X2X2X*X&X&X&X=X*X=X<X<X<X1X*X4X%X$X,XuXcXmXrXrXrXtX8XN G v g m ^ W / G wX              ",
"            G D W Q / ~ W W b l f.p.g.f.f.a.s.4.4.3.7.7.p.p.f.f.f.s.4.7.3.4.4.4.d.3.h.f.s.4.d.3.a.F.U.gXL.X.8X8X....i ^ f d / ~ ^ g A 0X              ",
"            G D W Q E / W W f % c ; 2 ; < < 2 3 , 5 , , , 3 c l x c , ] 5 , , , 3 > z l < > 2 2 2 x | X.mXrXvXbXeXK i S W Q E / ^ g V 0X              ",
"            G D W Q E / W ^ l d 0.c < @ @ < 3 -.3.1.%.%.3 -.1 @ & = 3 -.-.p.%.3 -.< # # < 3 -.-.2.a.X.nXtX7X7XhXbXeXZ A ^ m c Q / d V 0X              ",
"            F S W Q ~ / W ^ b l F.0.c + @ c p.XX.XOXm.m.3.|.=.* $ c -. X#X.X_.3.oX=.% % $.p..X.X#X{.uXmXX.e I 7XhXbXZ J x * W W W d V 0X              ",
"            G S m ^ ^ / W z d d * =.0.c $.-.p.z. XOXOX X3.XXp.c c =.;.m.OX Xz.1. X;.c c &.&.m.OXOX#X,XuXL.Z e e P zXk n x 1 Q E W d g 0X              ",
"            G D Q Q ~ b z = f z % 0.0.c c -.p..X Xm.N.x.%.XXs.R $.;.1.M. Xm.l.1. X3.c $.&.1.m.m.OXc.}.U.I.....Z 8XgXk y z W E / W d g 0X              ",
"            L D ^ W ~ h W z W W * t.0.c c -.-. X@Xb.OXl.%. Xs.3 3 ;.&.m.@Xm.x.1. X;.1 3 &.1. XN.b.%X}.C.eXL.P X.zXtXZ a d ^ ~ ) / d g 0X              ",
"            K H m b 9./ A.9./ b * 0.=.c $.-.%. XOXx.@Xl.<. Xs.c c -.&.m.OXx.x.<.M.3.c $.&.1. XN.N.v.].n C.fXMXmXtX..B a v ~ C.~ / f A 0X              ",
"            sXV.D W 9.w.w.b S m @ 0.-.3 [ -.3.OXOXv.b.x.<. Xp.3 3 ;.<.x.N.v.x.<.m.3.c $.&.<.v.N.N.N.`.-.{ } H C.H G a y v ^ ^ W / d V 0X              ",
"              9X( W Q ^ ~ d b b = =.t.c 3 3.3.x.N.b.OXv.%..X;.3 U ;.1.m.N.v.x.<.m.1.c R &.1. XOXN.B.m.%.-.=.m m q.q.g # l W W ^ W g V wX              ",
"              I.( W W W ~ s b b - r.=.! 4 4 3.+Xm.OX*Xm.%.oX;.4 R ,.&.m.OXN.x.1.M.>.T ! &.1. XOXOXOX X1.;.-.c x y.8.g # b / ~ ~ b d V 0X              ",
"              0XD W Q Q ~ d b E - i.t.Y t.h.o.m.OXB.x.x.7., h.>.R ,.&.m.OXN.x.1.M.>.T ! &.1. XOXOXOXm.&.;.;.R c 9.9.% z ~ / ~ ~ W b A 9X              ",
"              0XD W W W ^ d g b $ =.=.$.3 s.z.<.5.5.<.<., 1Xp.3 c -.&.m.OXN.z.<.m.3.c R &.1. X#XOX Xm.&.&.;.U R =.t.@ ^ W ~ ~ ) / D S I.              ",
"              9XH ^ W W ~ d d m * 0.s.2 3 4.3.&X&X&X&X&X`._.g.[ c -.1.m.OXv.z.<.m.3.c R &.1. XOXOXOXm.&.&.&.U 3 t.9.+ W E E / / ^ ~ A K.              ",
"              qXD ^ W W / d d W * =.R R $.%.%.m.+XB.x.x.<.|.s.R R ;.&.m.OXN.x.1.m.;.c R &.1. XOXN.N.m.&.&.;.c c t.W < W W Q Q E W ~ g H.              ",
"              K.A m W W / d d W * ;.t.U 4 &.1.m.N.N.OXm.%.$X;.3 U ;.&.m.B.N.x.1.m.1.c R &.1.m.OXB.N.x.O.&.;.$.c =.c y.9.W Q Q Q Q ( g H.              ",
"              G.A ~ ^ Q ~ g d W * -.-.$.' %.1.m.m.B.OXx.<. X6.3 3 ;.1.B.N.OXx.<.M.&.[ c &.<. Xm.N.N.N.O.&.-.c c 9.% W A.u.W R 8.W ( G G.              ",
"              G.v ^ W z ~ b d z + p.-.> 3 %.<.m.x.N.b.l.<.x.4.[ 3 -.1.x.x.b.c.<.m.3.[ 2 O.<.m.@XOXOXm.<.1.-.[ c =.@ m m m 8.W b b D A G.              ",
"              G.A ( W - ^ ~ b % ; S.'.g.c.`.c.@X@X@X@X@Xx.%X`.z.g.z.`.&X&X@XOXx.OXz.g.S.z.l.@X@X#XOX#Xc.z.z.z.h.S.; m m m 9.W ~ t S G J.              ",
"              G.A ( b $ ^ ^ b % l { '.:X.X$XOX@X@X@Xv.@XOX#X#X.X:X.X$X@X@XOX@X@X&X&X:X:X$X@X$X&X>X&X$X$X$XXX:X.XoX@ x 8.^ D b ( g G F J.              ",
"              J.A ( b - ^ ^ b d m % 8.f.0.0.;.3.%.<.%.3.1.;.0.s.f.0.3.&.%.%.1.3.%.3.0.e.3.%.%.%.2.2.2.-.3.-.s.0.0.% m D D D ^ D S r iX                ",
"              J.A ~ m z b ~ b f ~ f z = = 1 * 3 3 , , ] > 4 < > * * > 3 4 4 4 > , > l l 4 > 3 4 , , ] : 4 < < l l % m D ^ b ~ ~ C.p iX                ",
"              J.A ( W b d S g d b y v # = x c p.p.3.4.4.3 0.c @ @ l c s.6.s.-.3 p.2 % & > 3 s.s.4.3.3.2 c < # # b t S D ^ l = m H V dX                ",
"              J.V ( ~ W $ S h $ q.y D l = m f. X#X.XOX X3..X0.< * =.-.XX.X$X_.3..X*.l l *.3.XX XOXN.m.;.-.=.l v D y ) D ( m $ ~ ( N dX                ",
"                iXg ^ W d E E b $ y q.m c 0.2. XOXOXOXm.4.XXs.3 c 0.-..XOXm.x.3._.s.c c -.3.m.N.N.N.l.<.%.;.c W 9.d S ^ ^ b t ^ H N fX                ",
"                iXp ^ ~ d W / ~ s d w.m [ 3.%. XN.B.+Xm.' 6.O.o.3 s.3.m.x.B.x.%.XXs.1 c ;.1.m.N.N.N.l.<.%.3.c c 8.- W ~ ^ b t D V i dX                ",
"                dXg ^ ^ d b b b - $ 8.c 3 3.<.OXB.m.m.m.1.m.7.o.3 &.&.m.N.N.l.1.M.s.4 $.;.&.m.N.M.OXm.1.%.;.c c 9.$ / W ^ b d S i r                   ",
"                dXV H D g b b $ - - 9.c 3 4.1.m.m.m.+Xm.%.c.6.4 $.;.&.m.B.N.l.1.h.;.1 $.;.%.B.B.B.+Xm.3.;.-.R W 9.$ / b ~ ~ b v i u                   ",
"                aXB G v y S S t # d 8.l < -.%.d..XOX$X.X-.3.;.c < ;.3.d.c.OXx.%.3.=.1 c ;.3.+Xm.#X_.p.-.0.-.z = 8.t S d b D S g p u                   ",
"                aXB N i r A A i t g v & & n *.a.'.f.f.'.a.0.m l % m *.0.a._._.0.8.m % = m 0._.g.'.S.0.8.0.m # # v t g i A S A r B 0                   ",
"                kXu B u 6 i B u N N u 6 r p J | e.e.q.C.| v a a i i v } | | e.| A t r r p v J n q.e.} D A y r r r r r p A N p 7 0 7                   ",
"                kX7 M B 7 u M M 7 q 8 7 0 8 6 6 . w . 8 8 7 7 7 8 7 7 w 6 . 6 8 7 8 0 7 6 8 . 6 . w X . 6 6 6 7 8 0 7 C L B M 7 7 7                   ",
"                  kXpXkXaXaXkXpXlXlXjXjXjXpXaXpXpXpXpXpXpXpXjXjXlXkXjXpXpXpXpXpXkXlXlXlXkXjXaXpXpXaXaXaXaXaXaXaXsXaXkX                                ",
"                                                                                                                                                      ",
"                                                                                                                                                      "
};
