/* XPM */
static char *f27a431ab19846a8d3dadff6beb2ce81hsUQrxcKe89WFua0[] = {
/* columns rows colors chars-per-pixel */
"75 75 214 2 ",
"   c None",
".  c #0C140E",
"X  c #16130D",
"o  c #1C140B",
"O  c #1C190D",
"+  c #0D1B16",
"@  c #0C1C18",
"#  c #0B1714",
"$  c #151614",
"%  c #1B1614",
"&  c #161914",
"*  c #1C1A15",
"=  c #1B1719",
"-  c #151C1A",
";  c #1B1B1A",
":  c #23150C",
">  c #2B160E",
",  c #24190F",
"<  c #221613",
"1  c #221A15",
"2  c #2A1913",
"3  c #221C1A",
"4  c #291E1B",
"5  c #241517",
"6  c #351A17",
"7  c #2B0C07",
"8  c #0D211B",
"9  c #09251A",
"0  c #13231D",
"q  c #1C211D",
"w  c #112A1F",
"e  c #25221C",
"r  c #2A241D",
"t  c #35211A",
"y  c #271F21",
"u  c #381F25",
"i  c #0E2B22",
"p  c #1E2120",
"a  c #122B23",
"s  c #1A2B25",
"d  c #122722",
"f  c #12352A",
"g  c #183227",
"h  c #252423",
"j  c #2B2522",
"k  c #2E2925",
"l  c #2C2D2B",
"z  c #252925",
"x  c #332524",
"c  c #332A25",
"v  c #332D2A",
"b  c #3A2B26",
"n  c #34322C",
"m  c #3B332D",
"M  c #393225",
"N  c #3F2F30",
"B  c #2D3332",
"V  c #323331",
"C  c #3B3533",
"Z  c #343A35",
"A  c #3E3935",
"S  c #3C3B3A",
"D  c #393B3B",
"F  c #293129",
"G  c #46281F",
"H  c #442B25",
"J  c #492525",
"K  c #42342B",
"L  c #4A3E2E",
"P  c #4A3529",
"I  c #523C2E",
"U  c #5D322A",
"Y  c #413634",
"T  c #423A36",
"R  c #493D32",
"E  c #433C3A",
"W  c #493E3C",
"Q  c #4D3737",
"!  c #5B3534",
"~  c #523C33",
"^  c #583934",
"/  c #67352D",
"(  c #6D3A34",
")  c #683D3A",
"_  c #743A34",
"`  c #723936",
"'  c #75392F",
"]  c #3C403D",
"[  c #49402E",
"{  c #4A4135",
"}  c #44413C",
"|  c #4B423D",
" . c #464136",
".. c #52453B",
"X. c #564539",
"o. c #64423D",
"O. c #6A403A",
"+. c #6A4D3A",
"@. c #664738",
"#. c #78473E",
"$. c #3D4240",
"%. c #4E4542",
"&. c #4D4944",
"*. c #474948",
"=. c #504542",
"-. c #504644",
";. c #524645",
":. c #504643",
">. c #534946",
",. c #5F4D42",
"<. c #554C49",
"1. c #594E4C",
"2. c #4D514B",
"3. c #47504E",
"4. c #5C524C",
"5. c #57504D",
"6. c #4D5552",
"7. c #4F5950",
"8. c #525553",
"9. c #5D5653",
"0. c #5C5A55",
"q. c #595D59",
"w. c #575A57",
"e. c #614E4A",
"r. c #7E4944",
"t. c #625243",
"y. c #64594C",
"u. c #6C5B4C",
"i. c #635748",
"p. c #715E4F",
"a. c #625554",
"s. c #655B55",
"d. c #685D55",
"f. c #655C59",
"g. c #695D5A",
"h. c #6A5E5A",
"j. c #715E51",
"k. c #59605D",
"l. c #576058",
"z. c #6A615C",
"x. c #626359",
"c. c #78665A",
"v. c #5D6461",
"b. c #5D6A61",
"n. c #626A63",
"m. c #6A6764",
"M. c #786A63",
"N. c #6A716C",
"B. c #6D7371",
"V. c #6D7974",
"C. c #727674",
"Z. c #737B75",
"A. c #767B79",
"S. c #7A7D7B",
"D. c #70746D",
"F. c #83433F",
"G. c #894039",
"H. c #95574B",
"J. c #95594C",
"K. c #9D5C4E",
"L. c #8B5B53",
"P. c #835650",
"I. c #895149",
"U. c #AC695B",
"Y. c #A96759",
"T. c #B3665C",
"R. c #996B65",
"E. c #8E7B72",
"W. c #90746B",
"Q. c #A56C62",
"!. c #B46A61",
"~. c #A77D79",
"^. c #B27B6D",
"/. c #7C847D",
"(. c #7A867F",
"). c #82857E",
"_. c #8D8278",
"`. c #9E8B7D",
"'. c #998374",
"]. c #9D846D",
"[. c #A38D79",
"{. c #BD8174",
"}. c #C98C7E",
"|. c #7E8683",
" X c #7E8A83",
".X c #828785",
"XX c #818A84",
"oX c #838C89",
"OX c #8A8B86",
"+X c #9D8F80",
"@X c #86918A",
"#X c #8B938C",
"$X c #89958C",
"%X c #8E9A92",
"&X c #8B9692",
"*X c #949E96",
"=X c #949E99",
"-X c #9A9E96",
";X c #AC958D",
":X c #94A197",
">X c #95A199",
",X c #99A19A",
"<X c #98A097",
"1X c #A0A29D",
"2X c #B4AA9E",
"3X c #9FA8A0",
"4X c #B3BBB4",
"5X c #B3B6B1",
"6X c #A1AAA2",
"7X c #C49085",
"8X c #CDBCB0",
"9X c #BAC3BB",
"0X c #BEC6C2",
"qX c #C3CAC5",
/* pixels */
"                                                                                                                                                      ",
"                                                                                                                                                      ",
"                                                              f a i 9 i f                                                                             ",
"                                                  0 - 3 ; ; ; ; ; ; - ; ; ; ; ; = * & @ f                                                             ",
"                                          8 - ; ; ; % j E %.-.%.| | -.=.W -.-.%.v ; * * * * ; & w                                                     ",
"                                    s ; ; % * C >.| %.%.-.=.=.%.=.=.=.=.=.%.=.%.%.=.%.| 5.0.e & % ; ; w                                               ",
"                                d = ; ; V &.-.-.-.=.&.m * 3 C -.-.;.=.=.%.=.=.=.=.=.=.=.;.-.=.<.h.E ; ; & -                                           ",
"                              ; = % v &.&.=.-.=.>.T * | &.%.-.-.-.-.-.Y y ; % ; % % % % c W -.-.-.-.1.m.; * ; @                                       ",
"                          0 ; * k T T %.=.=.=.=.| b =.-.=.%.-.c * e A %.%.&.&.&.&.&.&.%.W j 3 * % %.1.%.%.m.3 * - d                                   ",
"                        0 * * C A A %.%.=.=.=.%.Y =.=.=.b C %.=.-.%.%.=.%.=.=.>.1.>.%.%.%.-.a.f.<.A 1 4 z.9.<.f.* ; 0                                 ",
"                      ; ; * A A e % c | %.%.=.=.%.%.%.%.=.-.-.=.&.A * % * ; * * * * % 3 <.a.-.%.g.g.h.<.W < g.<.z.3 ; -                               ",
"                    8 ; ; C C j C A k T =.| =.=.=.=.=.=.=.%.>.* * C %.%.%.%.=.-.-.-.%.%.=.<.% f.=.g.g.h.f.a.s.m g.h.n * ;                             ",
"                  8 & % A A C A A e 3 %.-.=.-.=.=.=.=.=.>.4 W %.%.=.=.%.-.=.=.-.%.%.1.g.h.f.g.h.a.h.g.g.g.g.d.g.g.g.d.} ; ;                           ",
"                  ; * Y A A A % 3 A %.>.-.-.=.-.=.=.=.=.=.%.%.%.%.=.W e ; % * & * * ; k %.f.g.h.z.g.g.g.s.4.g.g.g.g.g.z.n ; 0                         ",
"                0 * l T T k * m A T -.W < -.=.-.=.=.=.=.-.=.=.m j W %.-.=.=.=.-.<.%.T j * * * f.d.d.d.g.g.z.s.r r z.s.z.h.3 ;                         ",
"              i ; ; C T 3 * A A T %.1 k -.-.&.-.=.%.-.=.=.=.%.=.=.=.=.=.=.=.=.=.-.-.-.%.%.&.&.; & s.d.g.>.g.h.%.g.* c a.h.z.* -                       ",
"              & ; C A c * j A C m 3 v &.%.%.%.4 >.%.-.=.=.=.=.=.=.=.=.=.=.=.=.=.| x j T | &.%.-.f.W 4 g.g.%.e.h.=.s.c e 0.<.m = a                     ",
"              ; % C C % C A A C % C %.%.T * %.%.-.-.-.=.=.=.=.=.%.m 1 1 b %.=.%.=.=.%.| m % 1 | 4.%.g.Y h.a.=.<.%.=.s.v k a.f.3 ;                     ",
"            g ; 3 A j j k A A * v C >.% k %.&.-.-.%.-.%.=.=.=.=.=.=.=.%.| Y 1 3 &.%.%.=.-.=.%.1 & T | a.=.h.-.%.%.=.=.f.1 4.%.* ; i                   ",
"            8 ; v C r A C A 3 C T A % C %.%.-.-.-.< %.=.=.=.=.=.=.=.%.=.=.%.%.| % k &.=.=.=.=.%.&.& * &.%.=.-.=.=.%.=.%.9.k -.C ; -                   ",
"            0 ; E T A A A A A C A 1 m %.=.=.%.C 5 -.-.=.=.=.=.=.=.%.=.T X k ;.=.%.k r %.=.=.=.%.&.%.| * %.=.-.-.c =.=.=.>.r =.5.* ;                   ",
"            - ; T Y A A A A v j * 3 C T E W j < -.-.-.%.%.=.=.=.=.=.=.%.%.E 4 =.=.=.E v =.=.=.=.=.=.=.>.4 %.=.=.=.% | %.=.| =.9.* ;                   ",
"            * * T T A A A A v j % C A Y T v ; T >.%.< -.-.=.=.%.=.=.=.>.%.%.m %.-.=.=.| | >.%.%.=.=.=.=.%.c =.=.=.%.1 | %.=.%.0.* ;                   ",
"            ; * T A A A A A A e v A A A C * k A A % %.-.-.-.v ; * & ; $ ; C %.&.T j W >.b =.%.%.%.=.=.=.=.=.C %.=.%.n C =.&.=.<.* ;                   ",
"            * ; Y j j A A A C % A A A A v & A A A k -.-.-.%.; * * * * * * * S } * * 1 %.%.%.%.&.< m %.=.=.=.=.=.%.%.%.C =.%.>.C * -                   ",
"            & ; A A A C A T A * A A A A ; k T A A T &.-.&.h ; & .X|. XoX2.* ; * * * * * W %.&.A * * 3 E %.j % 3 %.&.=.-.-.=.%.1 ; -                   ",
"            - ; ; ; * * ; 3 C T T A A A * E A A T T % % * % ; /.XX X X X XN.* ; * Z.l * * * * * * e ; ; ; * * * * ; >.=.-.-.1.% ; 8                   ",
"              - ; ; $ ; * & * % A A A A % T A v ; * * ; k.N.XX X*X>X*X>X%X(./. X X X XXX2.* * e /.XXXXn.w.Z././.$ ; = 3 =.%.a.* ;                     ",
"                - ; ; ; $ C.; ; * A A A v k * ; ; q m.$ ; l S.>X:X:X*X:X>X*XXXXXXX,X#X/.XXXXXX|. X@X(. XXX X X X XS.& * % &.; ; @                     ",
"              - q B oXoX6.p D 2.* ; A A A v % n C.8.; * 1 * * * . XX*X*X#X/.oX*X*X*X*X,X*X#X#X&X*X:X*X>X,X>X*X,X|..Xq.; ; ; ; ;                       ",
"              ; $ .XD ; A..X; C.h ; k A A v * l N.; * &.-.-.%.k 1 % & e @X>X>X>X&X/. X>X@X*XXX*X*X:X>X*X%X$X=X.X* & * * * ; ; a                       ",
"            0 ; z *.; l ; S .Xz OX; % C T v ; & N.* ; &.| W %.%.%.=.j * * & n *X>X>X:X=X:X*X>X*X>X:X*X>X*XD ; * * C %.&.T ; ;                         ",
"            0 = ] h ; C.p ; q.|. X& ; C A 3 * c % * h C C C C C m E %.%.} e % * * 2.& % * & ,Xx.q * & X * * ; %.&.C C C E ; -                         ",
"            8 ; l B - ; p D - oX.XD * k T % ; ! P ; h C C 3 * ; * e m A A } &.} ; * * A * & >X* * } ; % m | C C C z e C c ; 9                         ",
"            f ; $ A.- ; V B.- l  Xv.% h l % 2 ( O.% ; m % % b P : & & * ; 3 v C A } | E * & *X; * A E C C h ; ; * * * ; 3 *                           ",
"              ; - A.$ - 8.B.N.;  XS.; ; * < O.G._ J 3 * * R.H.H.J.L.L.o.> < * * & * h * * ).>Xn.* ; * ; * & : H ~.~.1 ; ; ;                           ",
"              0 ; ; .X$ w.B.B.h (.XXh ; * 5 r.F._ ( 2 * ; ^ U.Y.Y.Y.K.H.H.Q.~.W.6 3 ; & D.>X,X,X/.$ % ~ L.J.J.H.{.;X% ; ; &                           ",
"                & = D C.p $.B.C.3.|.|. X|.$.> #._ / ! * = * R.U.U.Y.U.Y.Y.}.{.^.L.2 ; q.,X>X*X>X>X* * o.Y.U.U.U.7X< * ; ; ;                           ",
"                  ; ; B.|.XX# V.B XXoXoX X@X1 ` ( / U * %X; % ^ Q.U.T.T.T.!.7X[.: * Z ,X>X%X* $ *X,X; 1 P.U.Q.R.% ; *.- ; -                           ",
"                    ; ; |.|.B.|. X X XoXXX/.. ! ( U P & ,X-Xe * ; : 6 o.o.t o * ; n.@X&X=Xn.% N * @X,X& ; * 1 * - Z.>X- ; -                           ",
"                      % = S. X X XoXv.|.XX|. X& H / H F =X*X*X,Xl.* ; ; ; * ; V.=X:X=X>X=X- u 6 Q % #X:X*Xb.b.%X>X>XqX. = 0                           ",
"                        - ; *.XX|.6.k..XXXXX XoX% ( H Z >X:X:X:X%X:X-X*X>X>X>X>X:X>X>X>X>X* Q 1 % ; b.XX:X:X*X:X*X4XqX& =                             ",
"                            - - = ; ; $.|.|. X|.; ! > n.<X:X:X:X*X%X>X,X>X>X:X>X>X>X>X>X,X6.3 *.OXx.x.{ *X:X:X:X4XqXm.; ;                             ",
"                                  i ; = ; w. X.Xv.* % ,X:X:X<X:X*X#X*X*X>X:X X*X:X:X:X,X*X8Xn $ z w.).OX$X:X:X9XqX4X; ; 0                             ",
"                                      @ ; ; - Z |.2.XX@X*X>X XXX@X,X#X*X:X:X:X:X:X:X:X>X=X7.:X:X:X:X:X:X:X>XqX0X6.; ; @                               ",
"                                          8 ; * ; $ *.oX/.%X#X X*X<X:X:X:X:X:X:X:X:X>X>X>X=X>X>X>X>X>X*XqX9XZ.- ; ; a                                 ",
"                                              s ; ; ; ; $ & k.@X*X*X>X:X:X:X:X:X:X:X>X>X>X>X>X:X*X6X9X4X& * 3 ; +                                     ",
"                                              g * * * * ; ; ; * ; ; - V k.XX,X=X,X,X>X>X,X3X5XOXV $ * * ; & 0                                         ",
"                                            i $ % m R 1 ; * ; * * * ; ; ; * ; ; * $ ; $ ; ; ; ; ; * ; *                                               ",
"                                            ; 1 { ..t.,.% ; 3 1 < | >.X % & ; $ ; ; ; ; ; ; ; ; ; ; |.; @                                             ",
"                                          - * | ..X.t.t.R ; r r < R { c.$ . ] l $ ; ; h V *.D $ B.,X,X- -                                             ",
"                                        s ; n ....,.t.t.| ; e c e o s.'.E.o X n $ q k h h l ; * *X>X*.- d                                             ",
"                                        ; ; r | ..,.t.t.R ; e c K e ..p.u.`.O * 3 * ; $ $ $ ; ; C.:XV $                                               ",
"                                      8 3 $ ; & % % % % * ; r c R 1 1 o i.u.E.< & & l 8.S D ; ; h B % = 0                                             ",
"                                      * 3 M.).OXZ.l # % & & r c { K m r , | y.c.`.o * * * ; ; % % 3 ; h ; ;                                           ",
"                                      ; * * % x M.#.c.-X} * * o e m E Y v v < ..u.W.'.`.[.[.[.].+X; ; S.-X; ;                                         ",
"                                      - b G > < ; * = * * * 3 R ~ t < < * * % r 1 y.u.u.p.p.u.j._.; ; ; $ ; ; 0                                       ",
"                                    0 ; O.' _ ( ( ) ) o.o.< ; ; % % % % % % - $ X r 1 1 % * % % : t.R * 1XA.; -                                       ",
"                                    0 ; ) _ ` _ _ F.F.r.> % * Q @.+.+.+.+.+.+.+.X.P I ~ @.X.K t O % * ; ; ; ; 0                                       ",
"                                      - < O.` _ ( I.J #.I.< % * % * * * ; * % * * * % * * % r m R 4.; & 1X3 ;                                         ",
"                                        ; 1 Q ) ( 7 #.) 3 ; 1 C R { R L R R R R R L R [ L L R L i.4.; ; ; ;                                           ",
"                                          + ; * < x O 4 < % k M R { R R R R R R R R R R r % m [ t.i.% -                                               ",
"                                          9 5 y = ; 1 * 1 v j ; * R R R R R L R {  .R m * ; - 4 t.i.1 &                                               ",
"                                            ; ; ; & ; ; ; = ; * 3 * { R c % 1 { o * * * * } ; ; ; & 1 &                                               ",
"                                                    ; ; ; ; % 2X-X* 1 * ; ; ; ; ; * % * 3 * 1 * * * -                                                 ",
"                                                    ; * k * * % * * 1 e * &   z * v M b ~ I I ~ ..* ;                                                 ",
"                                                    ; * * * % j e 4 3 * ; *     * * * * % * * * * % =                                                 ",
"                                                        - ; - ; $ ; ; - 0         s q 0 - ; - 0                                                       ",
"                                                                                                                                                      ",
"                                                                                                                                                      ",
"                                                                                                                                                      ",
"                                                                                                                                                      ",
"                                                                                                                                                      ",
"                                                                                                                                                      ",
"                                                                                                                                                      "
};
